<svg xmlns="http://www.w3.org/2000/svg" width="512" height="512" viewBox="0 0 512 512" version="1.1">
	<path d="M 248.309 26.250 C 247.864 26.938, 247.616 32.191, 247.759 37.925 C 247.901 43.659, 247.760 48.094, 247.446 47.779 C 247.131 47.465, 246.221 43.464, 245.422 38.888 C 243.852 29.897, 243.056 28.381, 240.432 29.388 C 238.968 29.950, 238.821 30.982, 239.380 36.771 C 242.052 64.392, 241.794 65.097, 230.876 60.015 C 228.893 59.092, 227.734 59.072, 226.126 59.932 C 222.725 61.753, 223.624 63.582, 229.282 66.350 C 232.187 67.771, 237.137 71.329, 240.282 74.255 L 246 79.577 246 107.241 C 246 137.073, 246.299 139.069, 251.145 141.575 C 255.433 143.793, 258.826 143.328, 262.077 140.077 L 265 137.154 265 107.199 C 265 83.419, 265.296 76.535, 266.437 73.805 C 267.400 71.501, 268.109 64.207, 268.585 51.709 C 269.233 34.713, 269.146 32.993, 267.605 32.402 C 265.091 31.437, 264.747 32.257, 264.219 40.482 C 263.615 49.896, 262 50.364, 262 41.125 C 262 32.439, 261.118 27.982, 259.257 27.268 C 256.866 26.351, 256.031 29.036, 256.015 37.691 C 256.007 42.196, 255.550 46.160, 255 46.500 C 254.405 46.868, 253.964 45.575, 253.912 43.309 C 253.786 37.829, 253.073 29.865, 252.476 27.250 C 251.917 24.804, 249.604 24.249, 248.309 26.250 M 400.250 85.832 C 399.288 86.840, 395.411 91.599, 391.634 96.406 C 387.858 101.214, 383.631 105.667, 382.241 106.300 C 380.014 107.315, 379.521 107.165, 378.106 105.042 C 377.223 103.716, 376.050 101.252, 375.500 99.566 C 374.819 97.477, 373.746 96.393, 372.135 96.165 C 368.501 95.651, 367.763 97.188, 369.568 101.509 C 370.456 103.634, 371.434 109.594, 371.742 114.754 L 372.302 124.134 352.151 144.373 C 333.514 163.090, 332 164.879, 332 168.171 C 332 172.261, 335.009 176.673, 338.775 178.105 C 343.708 179.980, 346.986 177.587, 366.665 157.741 C 377.159 147.158, 385.914 137.996, 386.122 137.380 C 386.330 136.764, 388.620 135.189, 391.211 133.880 C 397.249 130.830, 421 108.543, 421 105.927 C 421 104.867, 420.745 104, 420.434 104 C 419.091 104, 415.727 106.334, 411.763 110.016 C 407.715 113.775, 406 114.774, 406 113.372 C 406 113.026, 408.951 109.615, 412.558 105.791 C 418.950 99.016, 420.246 95.864, 416.905 95.220 C 416.040 95.054, 412.108 97.903, 408.166 101.552 C 404.225 105.202, 401 107.778, 401 107.277 C 401 106.777, 403.925 103.120, 407.500 99.151 C 411.075 95.181, 414 91.049, 414 89.967 C 414 86.108, 410.226 88.030, 403.127 95.503 C 393.842 105.278, 393.764 104.220, 402.836 91.549 C 406.164 86.901, 406.431 84, 403.531 84 C 402.689 84, 401.212 84.825, 400.250 85.832 M 106.662 86.671 C 105.445 87.889, 105.971 88.851, 111 94.597 C 117.752 102.313, 117.328 103.571, 110.250 96.821 C 103.778 90.648, 100.505 88.592, 98.422 89.392 C 95.985 90.327, 96.796 91.862, 103.500 99 C 113.455 109.599, 112.201 109.690, 100.184 99.239 C 92.849 92.860, 90.804 92.096, 90.147 95.487 C 89.909 96.714, 92.361 99.745, 97.647 104.761 C 105.684 112.387, 104.641 112.836, 95.207 105.811 C 89.810 101.793, 86.771 101.234, 86.209 104.154 C 86.009 105.190, 88.741 108.073, 93.697 112.057 C 104.808 120.986, 109 125.140, 109 127.219 C 109 128.362, 107.614 129.625, 105.250 130.638 C 98.870 133.368, 98.510 133.640, 98.165 135.967 C 97.637 139.539, 99.338 140.394, 103.102 138.447 C 105.173 137.376, 109.665 136.549, 114.967 136.261 L 123.500 135.797 144.428 156.858 C 158.353 170.872, 166.277 178.122, 168.106 178.523 C 174.053 179.829, 180.744 172.903, 179.326 166.908 C 179.013 165.583, 169.836 155.500, 158.932 144.500 C 141.465 126.878, 138.860 123.830, 137.024 118.862 C 133.829 110.218, 109.214 84.120, 106.662 86.671 M 247.500 161.583 C 205.581 167.281, 175.517 193.189, 164.799 232.854 C 163.203 238.759, 162.736 243.460, 162.747 253.500 C 162.768 272.023, 166.105 285.775, 174.705 302.778 C 185.276 323.679, 203.401 337.379, 230 344.571 C 239.330 347.094, 242.172 347.412, 255.500 347.420 C 268.114 347.428, 271.772 347.067, 278.500 345.154 C 315.174 334.721, 340.522 307.470, 347.431 271.049 C 351.181 251.283, 347.734 230.403, 337.286 209.581 C 326.144 187.378, 313.852 176.121, 291.926 168.042 C 279.799 163.573, 257.118 160.276, 247.500 161.583 M 242.399 182.470 C 215.181 187.412, 191.350 213.836, 186.946 243.959 C 185.398 254.543, 186.219 276.671, 188.421 283.703 C 190.612 290.701, 198.771 302.676, 205.604 308.921 C 212.895 315.585, 222.575 321.230, 232.500 324.606 C 243.886 328.479, 261.058 329.125, 273.077 326.133 C 289.056 322.155, 303.359 313.077, 313.135 300.710 C 316.915 295.928, 318.382 292.609, 315.750 294.792 C 315.063 295.363, 311.409 296.993, 307.631 298.415 C 294.884 303.212, 280.602 301.395, 274.992 294.262 C 273.883 292.852, 272.210 289.545, 271.276 286.913 L 269.576 282.128 264.239 288.025 C 256.642 296.421, 248.331 300.381, 237.329 300.850 C 230 301.163, 228.504 300.904, 223.516 298.464 C 212.320 292.986, 206.612 282.177, 206.637 266.500 C 206.660 252.237, 211.355 239.062, 220.233 228.352 C 228.465 218.422, 235.976 213.445, 249.500 208.959 C 254.981 207.142, 258.779 206.628, 267 206.593 C 280.960 206.534, 289.121 208.343, 293.057 212.370 C 298.123 217.551, 298.143 216.214, 292.435 254 C 288.624 279.229, 289.569 283.561, 298.850 283.428 C 303.079 283.368, 304.553 282.788, 308.322 279.699 C 319.944 270.176, 325.715 247.035, 321.483 226.920 C 319.514 217.557, 316.192 211.611, 308.637 203.922 C 290.637 185.605, 267.105 177.984, 242.399 182.470 M 445.618 223.715 C 445.225 224.108, 444.095 226.257, 443.108 228.490 C 442.120 230.722, 438.718 235.351, 435.548 238.775 L 429.785 245 401.969 245 L 374.153 245 371.195 247.489 C 369.568 248.858, 368 251.220, 367.710 252.739 C 367.046 256.209, 369.198 261.500, 371.850 262.920 C 373.162 263.622, 384.124 264.005, 403.184 264.015 C 427.287 264.027, 433.300 264.310, 437 265.607 C 443.017 267.716, 476.319 268.911, 477.464 267.058 C 478.791 264.912, 476.226 263.642, 469.765 263.246 C 459.631 262.626, 459.781 261.628, 470.097 261.044 C 480.263 260.468, 484.048 258.967, 481.890 256.367 C 481.086 255.399, 478.166 255, 471.878 255 C 457.002 255, 462.010 252.536, 478.500 251.741 C 482.746 251.536, 483.546 251.179, 483.804 249.372 C 484.218 246.463, 481.111 245.816, 469.698 246.434 C 459.704 246.975, 460.232 246.534, 472.500 244.092 C 479.303 242.738, 480.500 242.201, 480.500 240.500 C 480.500 238.716, 479.852 238.506, 474.500 238.557 C 471.200 238.589, 464.835 238.987, 460.356 239.442 C 446.816 240.818, 445.179 239.611, 449.041 231.099 C 450.911 226.976, 450.932 226.582, 449.364 224.849 C 447.555 222.851, 446.732 222.601, 445.618 223.715 M 254.615 228.639 C 248.273 230.587, 239.888 238.841, 236.237 246.732 C 233.918 251.742, 233.563 253.814, 233.534 262.500 C 233.505 270.973, 233.805 272.910, 235.500 275.182 C 241.867 283.719, 254.608 280.624, 261.692 268.819 C 266.290 261.157, 267.757 256.121, 269.609 241.638 C 271.001 230.758, 271.042 228.641, 269.877 227.903 C 267.794 226.584, 260.101 226.955, 254.615 228.639 M 36.188 239.811 C 32.772 240.057, 31.943 240.472, 32.197 241.811 C 32.432 243.050, 33.714 243.568, 37.009 243.754 C 50.526 244.517, 51.332 247, 38.063 247 C 31.337 247, 28.941 247.366, 27.965 248.542 C 25.748 251.214, 28.432 252.357, 37.992 252.814 C 42.946 253.051, 47 253.640, 47 254.122 C 47 254.605, 43.288 255.045, 38.750 255.100 C 28.966 255.218, 25.624 255.996, 25.189 258.258 C 24.722 260.682, 28.740 261.378, 39.270 260.695 C 50.238 259.985, 49.680 261.325, 38.186 263.299 C 28.824 264.908, 26.717 266.146, 29.170 268.598 C 30.548 269.977, 31.902 270.041, 39.627 269.094 C 44.507 268.495, 51.538 268.004, 55.250 268.003 C 61.759 268, 62 268.088, 62 270.466 C 62 271.822, 61.230 274.547, 60.289 276.520 C 59.012 279.199, 58.849 280.538, 59.646 281.804 C 61.664 285.008, 63.687 284.279, 65.993 279.515 C 67.214 276.992, 70.461 272.469, 73.207 269.464 L 78.201 264 108.177 264 L 138.154 264 141.077 261.077 C 145.814 256.340, 144.852 249.526, 139.020 246.510 C 136.620 245.269, 131.126 245, 108.177 245 C 81.896 245, 79.972 244.875, 75.459 242.879 C 70.813 240.824, 67.471 240.454, 47 239.730 C 43.425 239.603, 38.560 239.640, 36.188 239.811 M 164.500 332.890 C 162.850 333.926, 153.176 343.176, 143.002 353.447 C 127.078 369.523, 123.825 372.344, 119.626 373.717 C 115.865 374.947, 111.922 377.917, 102.419 386.673 C 87.463 400.453, 84.650 404, 88.672 404 C 89.592 404, 92.967 401.719, 96.172 398.931 C 99.378 396.144, 102 394.399, 102 395.054 C 102 395.709, 99.300 399.131, 96 402.659 C 85.597 413.780, 89.345 417.286, 100.490 406.860 C 104.100 403.483, 107.259 400.925, 107.509 401.176 C 107.759 401.426, 104.805 405.169, 100.943 409.493 C 94.197 417.048, 92.826 420.175, 96.011 420.742 C 97.645 421.033, 103.681 415.719, 108.722 409.553 C 113.975 403.128, 113.448 406.125, 108.016 413.577 C 103.098 420.323, 102.012 423.271, 103.992 424.495 C 105.658 425.525, 107.511 423.846, 114.468 415 C 126.178 400.111, 129.443 398.576, 132.030 406.742 C 133.719 412.074, 136.663 414.135, 139.772 412.162 C 140.774 411.526, 140.639 410.414, 139.135 406.927 C 138.085 404.492, 136.927 399.289, 136.563 395.366 L 135.902 388.231 156.915 367.489 C 170.835 353.750, 178.288 345.657, 178.994 343.518 C 180.321 339.497, 179.138 336.041, 175.440 333.131 C 172.098 330.503, 168.433 330.422, 164.500 332.890 M 337.357 331.992 C 334.208 333.262, 332 336.962, 332 340.966 C 332 344.225, 333.614 346.087, 353.696 365.994 C 365.629 377.822, 376.149 389.075, 377.073 391 C 378.722 394.432, 395.035 412.635, 400.842 417.520 C 407.398 423.037, 407.876 418.880, 401.500 411.789 C 397.008 406.793, 395.437 403.546, 398.750 406.108 C 399.712 406.852, 402.622 409.468, 405.215 411.922 C 407.809 414.375, 410.583 416.747, 411.379 417.192 C 413.004 418.102, 416 417.262, 416 415.897 C 416 415.408, 413.056 411.800, 409.458 407.880 C 405.860 403.959, 403.129 400.538, 403.388 400.278 C 403.648 400.018, 407.296 402.802, 411.495 406.464 C 415.694 410.126, 419.851 412.982, 420.732 412.811 C 424.367 412.106, 422.952 409.423, 414.880 401.710 C 408.152 395.280, 407.288 394.157, 410.500 396.013 C 412.700 397.284, 415.400 399.091, 416.500 400.029 C 421.270 404.098, 423.950 405.286, 425.484 404.013 C 427.732 402.148, 426.053 399.988, 416.642 392.640 C 412.027 389.036, 407.021 384.625, 405.516 382.837 L 402.780 379.586 405.446 377.293 C 406.912 376.032, 408.917 375, 409.901 375 C 412.310 375, 415.263 371.583, 414.806 369.324 C 414.378 367.206, 412.782 367.225, 405.032 369.438 C 402.025 370.297, 396.414 371, 392.563 371 L 385.562 371 365.476 351 C 344.277 329.893, 343.634 329.459, 337.357 331.992 M 249.913 368.282 C 246.263 371.085, 246 373.379, 246 402.469 C 246 427.156, 245.778 431.409, 244.379 433.544 C 241.695 437.641, 239.755 473.594, 242.034 477 C 243.992 479.925, 246 475.270, 246 467.809 C 246 463.936, 246.431 461, 247 461 C 247.583 461, 248 464.312, 248 468.935 C 248 477.557, 249.145 482, 251.368 482 C 253.409 482, 253.991 479.774, 254.070 471.668 C 254.186 459.908, 255.650 459.183, 256.428 470.500 C 257.348 483.889, 257.256 483.500, 259.514 483.500 C 261.345 483.500, 261.539 482.640, 262 472.500 C 262.529 460.855, 263.301 460.831, 264.925 472.408 C 265.902 479.373, 267.089 481.287, 269.790 480.250 C 271.016 479.780, 271.121 478.334, 270.424 471.593 C 269.963 467.142, 269.566 459.900, 269.543 455.500 L 269.500 447.500 272.500 447.611 C 274.150 447.671, 276.974 448.337, 278.775 449.089 C 281.196 450.101, 282.501 450.174, 283.775 449.370 C 286.481 447.663, 285.901 444.751, 282.685 443.891 C 279.507 443.041, 274.295 439.396, 268.750 434.145 L 265 430.594 265 401.252 L 265 371.909 262.545 369.455 C 260.686 367.595, 259.050 367.008, 255.795 367.032 C 253.433 367.049, 250.786 367.612, 249.913 368.282" stroke="none" fill="black" fill-rule="evenodd"/>
</svg>