<svg xmlns="http://www.w3.org/2000/svg" width="512" height="512" viewBox="0 0 512 512" version="1.1">
	<path d="M 223 32.037 C 145.931 38.569, 74.397 64.406, 13.911 107.554 C 6.535 112.816, 0.597 117.498, 0.716 117.958 C 1.090 119.408, 35.054 165.485, 35.992 165.814 C 36.483 165.987, 40.399 163.454, 44.693 160.186 C 84.836 129.630, 138.108 106.852, 192.409 97.025 C 227.885 90.605, 270.996 90.072, 309 95.584 C 366.061 103.861, 425.182 128.324, 469.909 162.166 C 473.434 164.833, 476.414 166.899, 476.531 166.758 C 477.247 165.889, 511.772 118.178, 512.283 117.350 C 512.629 116.791, 512.365 116.333, 511.696 116.333 C 511.028 116.333, 506.210 113.386, 500.990 109.784 C 442.205 69.218, 375.732 43.545, 304.500 33.897 C 287.333 31.572, 240.969 30.514, 223 32.037 M 238 151.650 C 209.881 154.304, 194.922 156.849, 175 162.368 C 147.800 169.904, 117.759 182.860, 97.796 195.667 C 84.984 203.886, 71.111 214.373, 71.718 215.379 C 74.940 220.717, 106.397 263, 107.146 263 C 107.680 263, 111.579 260.382, 115.809 257.183 C 145.900 234.422, 183.381 219.418, 225.279 213.360 C 240.139 211.212, 270.482 211.240, 286 213.417 C 329.181 219.474, 366.009 234.157, 397.500 257.870 C 403.696 262.535, 405.767 263.624, 406.685 262.697 C 408.408 260.958, 440.161 216.744, 440.704 215.329 C 440.956 214.672, 437.838 211.676, 433.774 208.671 C 392.077 177.834, 342.177 158.646, 287.798 152.539 C 275.698 151.180, 248.187 150.689, 238 151.650 M 234 272.090 C 210.784 275.079, 188.680 282.146, 169.436 292.734 C 158.841 298.563, 142.473 310.409, 142.600 312.156 C 142.655 312.915, 150.498 324.181, 160.028 337.193 L 177.356 360.850 182.428 356.612 C 197.333 344.158, 217.015 336.010, 240.689 332.495 C 269.318 328.243, 304.120 337.456, 327.834 355.565 C 331.868 358.645, 335.300 361.015, 335.461 360.832 C 336.746 359.374, 371 311.940, 371 311.620 C 371 311.392, 366.613 308.362, 361.250 304.886 C 335.355 288.100, 306.171 276.929, 276.838 272.573 C 265.625 270.908, 244.991 270.676, 234 272.090 M 248.715 392.040 C 236.514 394.091, 222.929 403.913, 217.268 414.777 C 212.858 423.240, 211.694 428.725, 212.175 438.787 C 212.536 446.335, 213.116 448.711, 216.157 455.115 C 231.212 486.817, 274.420 490.083, 293.849 460.988 C 308.728 438.707, 300.496 407.682, 276.606 395.997 C 267.221 391.407, 259.226 390.272, 248.715 392.040" stroke="none" fill="black" fill-rule="evenodd"/>
</svg>